<svg width="18" height="19" viewBox="0 0 18 19" fill="none" xmlns="http://www.w3.org/2000/svg">
<path d="M17.1738 6.36858C17.1738 3.70926 15.4713 1.53209 13.2866 1.53209H10.808C9.79102 1.01228 8.58566 0.710938 7.25977 0.710938H6.20508C5.22573 0.710938 4.38951 0.771205 3.8471 0.906808C2.73968 1.17801 2.03906 1.96903 2.03906 2.95592C2.03906 3.12919 2.0692 3.29492 2.1144 3.45313C1.59459 3.85993 1.30078 4.44755 1.30078 5.09542C1.30078 5.39676 1.36105 5.69057 1.46652 5.93917C1.11998 6.30832 0.916574 6.84319 0.916574 7.39314C0.916574 7.75474 1.00698 8.12388 1.15765 8.41016C0.946708 8.72656 0.826172 9.15597 0.826172 9.63058C0.826172 10.8359 1.74526 11.7626 2.93555 11.7626H5.738C5.89621 11.7626 6.00167 11.8379 5.99414 11.981C5.95647 12.757 4.73605 14.6253 4.73605 16.1546C4.73605 17.2771 5.52706 18.0982 6.61942 18.0982C7.41044 18.0982 7.95285 17.6839 8.47266 16.697C9.41434 14.889 10.5444 13.3069 12.2243 11.2352H13.5728C15.6219 11.2352 17.1738 9.0731 17.1738 6.36858ZM12.4805 6.42885C12.4805 8.02595 12.1264 9.04297 11.1018 10.4141C9.96429 11.9358 8.38225 13.774 7.2447 16.0491C7.00363 16.5237 6.83789 16.6367 6.60435 16.6367C6.31808 16.6367 6.12974 16.4333 6.12974 16.0717C6.12974 14.9568 7.4029 13.0884 7.4029 11.8605C7.4029 10.9565 6.67215 10.3689 5.67773 10.3689H2.97321C2.53627 10.3689 2.21233 10.0449 2.21233 9.60798C2.21233 9.29911 2.3178 9.0957 2.57394 8.83957C2.76981 8.63616 2.79994 8.34989 2.62667 8.15402C2.4082 7.84515 2.3178 7.64928 2.3178 7.39314C2.3178 7.08426 2.46094 6.82059 2.76228 6.59459C3.01842 6.41378 3.10882 6.10491 2.95815 5.80357C2.79994 5.50223 2.71708 5.34403 2.71708 5.11049C2.71708 4.74888 2.95061 4.47015 3.41769 4.22154C3.66629 4.08594 3.7341 3.82227 3.62863 3.58119C3.47042 3.19699 3.44782 3.12919 3.45536 2.96345C3.45536 2.63951 3.6889 2.38337 4.19364 2.2553C4.63811 2.1423 5.34626 2.0971 6.28041 2.10463L7.25223 2.11217C10.3711 2.1423 12.4805 3.89007 12.4805 6.42885ZM15.8103 6.36858C15.8103 8.28209 14.8234 9.81138 13.6934 9.85659C13.4975 9.86412 13.3016 9.86412 13.1057 9.86412C13.6406 8.81697 13.8742 7.73214 13.8742 6.42885C13.8742 5.04269 13.392 3.82227 12.5181 2.86551C12.7969 2.86551 13.0831 2.87305 13.3694 2.87305C14.6878 2.92578 15.8103 4.47015 15.8103 6.36858Z" fill="#1C2126"/>
</svg>
