<svg width="18" height="19" viewBox="0 0 18 19" fill="none" xmlns="http://www.w3.org/2000/svg">
<path d="M0.826172 12.5578C0.826172 15.2171 2.52874 17.3943 4.71345 17.3943H7.19196C8.20898 17.9141 9.41434 18.2154 10.7402 18.2154H11.7949C12.7743 18.2154 13.6105 18.1551 14.1529 18.0195C15.2603 17.7408 15.9609 16.9573 15.9609 15.9704C15.9609 15.7896 15.9383 15.6314 15.8856 15.4657C16.4054 15.0664 16.6992 14.4713 16.6992 13.8234C16.6992 13.522 16.639 13.2282 16.5335 12.9796C16.88 12.6105 17.0834 12.0831 17.0834 11.5332C17.0834 11.1641 16.993 10.8025 16.8424 10.5162C17.0533 10.1922 17.1738 9.76283 17.1738 9.29576C17.1738 8.0904 16.2547 7.16378 15.0645 7.16378H12.262C12.1038 7.16378 11.9983 7.08845 12.0059 6.94531C12.0435 6.16183 13.264 4.30106 13.264 2.77176C13.264 1.64927 12.4729 0.828125 11.3806 0.828125C10.5896 0.828125 10.0472 1.24247 9.52734 2.22935C8.59319 4.03739 7.45564 5.61942 5.77567 7.68359H4.42718C2.37807 7.68359 0.826172 9.85324 0.826172 12.5578ZM5.51953 12.4975C5.51953 10.9004 5.8736 9.87584 6.89816 8.51228C8.03571 6.98298 9.61775 5.15234 10.7553 2.87723C10.9964 2.40262 11.1621 2.28209 11.4032 2.28209C11.6895 2.28209 11.8778 2.49302 11.8778 2.85463C11.8778 3.96959 10.5971 5.83789 10.5971 7.05831C10.5971 7.96987 11.3278 8.54994 12.3223 8.54994H15.0268C15.4637 8.54994 15.7877 8.88142 15.7877 9.31836C15.7877 9.62723 15.6897 9.83064 15.4261 10.0868C15.2302 10.2826 15.2001 10.5689 15.3733 10.7723C15.5918 11.0737 15.6822 11.2771 15.6822 11.5332C15.6822 11.8421 15.5391 12.1057 15.2377 12.3242C14.9816 12.5126 14.8912 12.8139 15.0419 13.1152C15.2001 13.4241 15.2829 13.5748 15.2829 13.8158C15.2829 14.1775 15.0494 14.4487 14.5823 14.6973C14.3337 14.8329 14.2659 15.1041 14.3714 15.3376C14.5296 15.7218 14.5522 15.7972 14.5446 15.9629C14.5446 16.2868 14.3111 16.543 13.8064 16.671C13.3619 16.7765 12.6537 16.8292 11.7196 16.8217L10.7478 16.8142C7.62891 16.784 5.51953 15.0287 5.51953 12.4975ZM2.19727 12.5578C2.19727 10.6443 3.17662 9.11495 4.30664 9.06222C4.50251 9.06222 4.69838 9.06222 4.89425 9.06222C4.35938 10.1018 4.12584 11.1942 4.12584 12.4975C4.12584 13.8836 4.60798 15.1041 5.4894 16.0533C5.21066 16.0533 4.91685 16.0533 4.63058 16.0533C3.31222 16.0006 2.19727 14.4487 2.19727 12.5578Z" fill="#1C2126"/>
</svg>
